<svg xmlns="http://www.w3.org/2000/svg"  viewBox="0 0 48 48" width="48px" height="48px"><path d="M 14.5 4 C 14.221875 4 13.944219 4.0779219 13.699219 4.2324219 L 4.1992188 10.232422 C 3.7642187 10.507422 3.5 10.985 3.5 11.5 C 3.5 12.015 3.7642187 12.493531 4.1992188 12.769531 L 11.691406 17.5 L 4.1992188 22.230469 C 3.7642188 22.506469 3.5 22.985 3.5 23.5 C 3.5 24.015 3.7642187 24.493531 4.1992188 24.769531 L 13.699219 30.769531 C 13.944219 30.923531 14.222 31 14.5 31 C 14.778 31 15.055781 30.923531 15.300781 30.769531 L 24 25.273438 L 32.699219 30.767578 C 32.944219 30.922578 33.222 31 33.5 31 C 33.778 31 34.055781 30.923531 34.300781 30.769531 L 43.800781 24.769531 C 44.236781 24.494531 44.5 24.015 44.5 23.5 C 44.5 22.985 44.235781 22.506469 43.800781 22.230469 L 36.308594 17.5 L 43.800781 12.769531 C 44.236781 12.494531 44.5 12.015 44.5 11.5 C 44.5 10.985 44.235781 10.506469 43.800781 10.230469 L 34.300781 4.2304688 C 33.811781 3.9214687 33.189219 3.9214688 32.699219 4.2304688 L 24 9.7265625 L 15.300781 4.2324219 C 15.056281 4.0779219 14.778125 4 14.5 4 z M 24 11.451172 L 33.576172 17.5 L 24 23.548828 L 14.423828 17.5 L 24 11.451172 z M 24 30 C 23.7155 30 23.432094 30.081187 23.183594 30.242188 L 14.722656 35.742188 C 14.296656 36.018188 14.039062 36.492 14.039062 37 C 14.039062 37.508 14.296656 37.980813 14.722656 38.257812 L 23.183594 43.757812 C 23.431594 43.918812 23.715 44 24 44 C 24.285 44 24.568406 43.918813 24.816406 43.757812 L 33.277344 38.257812 C 33.703344 37.981812 33.960938 37.508 33.960938 37 C 33.960938 36.492 33.705297 36.019187 33.279297 35.742188 L 24.818359 30.242188 C 24.569859 30.081187 24.2845 30 24 30 z"/></svg>