<svg xmlns="http://www.w3.org/2000/svg"  viewBox="0 0 24 24" width="24px" height="24px"><path d="M5.003,22.493L5.008,2.52	C5.001,2.253,5.215,2,5.509,2H9.5c0.196,0,0.375,0.12,0.455,0.307l4.056,9l0.001-8.8c0-0.28,0.224-0.507,0.5-0.507h3.991	c0.275,0,0.5,0.227,0.5,0.507v18.987c0,0.013-0.001,0.013-0.001,0.027l0.001,1h-0.005c-0.015,0.28-0.283,0.533-0.597,0.467	l-4.291-0.867c-0.157-0.027-0.291-0.133-0.357-0.28l-3.759-8.253v8.107c0,0.24-0.169,0.44-0.403,0.493l-3.991,0.8	C5.29,23.04,5.003,22.813,5.003,22.493z"/></svg>